<?xml version="1.0" encoding="UTF-8" standalone="no"?>
<!DOCTYPE svg PUBLIC "-//W3C//DTD SVG 1.1//EN" "http://www.w3.org/Graphics/SVG/1.1/DTD/svg11.dtd">
<svg width="100%" height="100%" viewBox="0 0 876 876" version="1.1" xmlns="http://www.w3.org/2000/svg" xmlns:xlink="http://www.w3.org/1999/xlink" xml:space="preserve" style="fill-rule:evenodd;clip-rule:evenodd;stroke-linejoin:round;stroke-miterlimit:1.41421;">
    <g transform="matrix(1,0,0,1,-233,-1348.76)">
        <g transform="matrix(4.03422e-17,-0.658569,0.677821,4.14847e-17,-21.8608,3198.68)">
            <ellipse cx="2144.5" cy="1021.5" rx="664.5" ry="645.5" style="fill:rgb(236,240,241);"/>
        </g>
        <g transform="matrix(1.52118e-17,0.250818,-0.25815,1.57969e-17,932.075,1247.69)">
            <path d="M1713.97,529.807C1565.54,652.451 1480,832.205 1480,1021.5C1480,1377.76 1777.75,1667 2144.5,1667C2511.25,1667 2809,1377.76 2809,1021.5C2809,868.256 2752.88,720.01 2650.67,603.28L2349.37,852.227C2390.74,899.473 2413.45,959.475 2413.45,1021.5C2413.45,1165.69 2292.94,1282.76 2144.5,1282.76C1996.06,1282.76 1875.55,1165.69 1875.55,1021.5C1875.55,944.884 1910.17,872.129 1970.25,822.49L1713.97,529.807Z" style="fill:rgb(173,191,210);"/>
        </g>
        <g transform="matrix(0.917511,0,0,0.917511,-501.009,912.026)">
            <g transform="matrix(0.717297,0,0,1.10276,356.806,-268.809)">
                <rect x="816" y="1106" width="210" height="418" style="fill:rgb(22,160,133);"/>
            </g>
            <g transform="matrix(3.06693e-17,-0.500662,0.515298,3.15378e-17,748.07,2025.63)">
                <path d="M1551.76,729.723C1504.58,820.158 1480,920.116 1480,1021.5C1480,1377.76 1777.75,1667 2144.5,1667C2511.25,1667 2809,1377.76 2809,1021.5C2809,665 2511.49,376 2144.5,376L2144.5,669.779C2344.47,669.779 2506.57,827.25 2506.57,1021.5C2506.57,1215.62 2344.33,1373.22 2144.5,1373.22C1944.67,1373.22 1782.43,1215.62 1782.43,1021.5C1782.43,966.258 1795.82,911.792 1821.53,862.516L1551.76,729.723Z" style="fill:rgb(22,160,133);"/>
            </g>
        </g>
    </g>
</svg>
